<svg width="19" height="17" viewBox="0 0 19 17" fill="none" xmlns="http://www.w3.org/2000/svg">
<path fill-rule="evenodd" clip-rule="evenodd" d="M9.24096 10.9155C7.84237 10.9155 7.07959 11.7384 6.92247 12.0091C6.64529 12.4868 6.03335 12.6494 5.55565 12.3722C5.07796 12.095 4.91542 11.4831 5.1926 11.0054C5.65122 10.215 7.02384 8.91554 9.24096 8.91554C11.4575 8.91554 12.8335 10.2143 13.2942 11.0028C13.5728 11.4797 13.412 12.0921 12.9352 12.3707C12.4583 12.6493 11.8459 12.4886 11.5673 12.0117C11.408 11.7391 10.6401 10.9155 9.24096 10.9155Z" fill="#4F4F4F"/>
<path fill-rule="evenodd" clip-rule="evenodd" d="M9.2387 6.66554C6.52452 6.66554 4.98478 8.26056 4.60363 8.91743C4.32644 9.39512 3.7145 9.55766 3.23681 9.28048C2.75912 9.0033 2.59657 8.39135 2.87376 7.91366C3.55641 6.7372 5.70599 4.66554 9.2387 4.66554C12.7708 4.66554 14.9268 6.73648 15.6131 7.91109C15.8917 8.38796 15.731 9.00038 15.2541 9.27899C14.7772 9.55759 14.1648 9.39686 13.8862 8.92C13.5014 8.26127 11.9535 6.66554 9.2387 6.66554Z" fill="#4F4F4F"/>
<path fill-rule="evenodd" clip-rule="evenodd" d="M9.23623 2.68398C5.12326 2.68398 2.75741 5.10003 2.13805 6.16742C1.86087 6.64511 1.24892 6.80765 0.771231 6.53047C0.29354 6.25329 0.130996 5.64134 0.408179 5.16365C1.32903 3.57667 4.30473 0.683975 9.23623 0.683975C14.1672 0.683975 17.1525 3.57595 18.0786 5.16108C18.3572 5.63794 18.1965 6.25037 17.7196 6.52897C17.2428 6.80757 16.6304 6.64685 16.3518 6.16999C15.7271 5.10074 13.3498 2.68398 9.23623 2.68398Z" fill="#4F4F4F"/>
<circle cx="9.24414" cy="14.5072" r="1.5" fill="#4F4F4F"/>
</svg>
