<svg width="27" height="45" viewBox="0 0 27 45" fill="none" xmlns="http://www.w3.org/2000/svg">
<path d="M0.670033 15.643C-0.801838 13.8907 0.599889 1.69475 0.670033 0.783565L3.28026 0.292923V9.12445C3.28026 9.75528 3.50552 11.0169 4.40656 11.0169C5.3076 11.0169 5.6195 9.75528 5.66282 9.12445V0.292923H8.48569V9.12445C8.42502 9.75528 8.57128 11.0169 9.64171 11.0169C10.7121 11.0169 10.8821 9.75528 10.8333 9.12445V0.292923L13.4967 0.783565C13.5902 5.12924 15.1288 14.011 13.4967 15.643C11.8647 17.275 8.73052 19.0279 8.73052 19.9886C8.73052 21.1506 9.58563 44.3805 6.55768 44.3805C2.77274 44.3805 5.43622 21.6007 5.43622 19.9886C5.43622 18.3765 2.1419 17.3953 0.670033 15.643Z" fill="#4F4F4F"/>
<path d="M24.6622 43.8191C23.5408 44.9406 19.1085 44.9756 17.9521 43.8191C16.7956 42.6627 19.4942 30.3616 19.4942 22.301C19.4942 14.2405 18.8633 0.0119397 18.8633 0.0119397C21.6436 -0.151608 24.1848 1.31393 25.7649 7.58182C27.8677 15.9227 25.6622 19.9179 23.6295 20.8992C21.5969 21.8805 22.3589 24.4637 23.209 26.3664C24.6809 29.6607 25.7837 42.6977 24.6622 43.8191Z" fill="#4F4F4F"/>
</svg>
