<svg width="23" height="33" viewBox="0 0 23 33" fill="none" xmlns="http://www.w3.org/2000/svg">
<path d="M0.679551 0H22.004C22.004 0 24.2119 14.3997 19.2003 19.4112C14.1888 24.4228 9.07209 24.9835 3.49981 19.4112C-2.07246 13.839 0.679551 0 0.679551 0Z" fill="#4F4F4F"/>
<path fill-rule="evenodd" clip-rule="evenodd" d="M8.43143 22.3591C8.70018 22.2956 8.96951 22.462 9.03299 22.7308C9.39542 24.265 9.57997 26.5945 8.9039 28.5711C8.56278 29.5684 7.99526 30.4958 7.10172 31.1724C6.20494 31.8514 5.01986 32.2474 3.49988 32.2474C3.22374 32.2474 2.99988 32.0235 2.99988 31.7474C2.99988 31.4712 3.22374 31.2474 3.49988 31.2474C4.83965 31.2474 5.80288 30.9015 6.49805 30.3751C7.19646 29.8463 7.66453 29.1046 7.95772 28.2474C8.55027 26.515 8.39831 24.3937 8.05978 22.9607C7.99629 22.6919 8.16269 22.4226 8.43143 22.3591Z" fill="#4F4F4F"/>
<path fill-rule="evenodd" clip-rule="evenodd" d="M2.99988 31.7473C2.99988 31.4712 3.22374 31.2473 3.49988 31.2473H18.92C19.1961 31.2473 19.42 31.4712 19.42 31.7473C19.42 32.0235 19.1961 32.2473 18.92 32.2473H3.49988C3.22374 32.2473 2.99988 32.0235 2.99988 31.7473Z" fill="#4F4F4F"/>
<path fill-rule="evenodd" clip-rule="evenodd" d="M13.9868 22.3591C13.718 22.2956 13.4487 22.462 13.3852 22.7307C13.0226 24.2649 12.838 26.5945 13.5143 28.5711C13.8556 29.5684 14.4233 30.4958 15.3171 31.1724C16.2141 31.8514 17.3995 32.2474 18.9199 32.2474C19.1961 32.2474 19.4199 32.0235 19.4199 31.7474C19.4199 31.4712 19.1961 31.2474 18.9199 31.2474C17.5797 31.2474 16.6161 30.9015 15.9206 30.3751C15.222 29.8462 14.7538 29.1045 14.4605 28.2474C13.8678 26.515 14.0198 24.3937 14.3584 22.9607C14.4219 22.692 14.2555 22.4226 13.9868 22.3591Z" fill="#4F4F4F"/>
<path d="M8.38097 21.3537H14.0387L13.7129 27.0045L16.0522 31.3537H6.91174L8.90451 27.0045L8.38097 21.3537Z" fill="#4F4F4F"/>
</svg>
